<svg height="50" viewBox="0 -15 480 479" width="50" xmlns="http://www.w3.org/2000/svg"><path d="m304 216.519531c4.417969 0 8-3.582031 8-8v-8c0-4.417969-3.582031-8-8-8s-8 3.582031-8 8v8c0 4.417969 3.582031 8 8 8zm0 0"/><path d="m272 216.519531c4.417969 0 8-3.582031 8-8v-8c0-4.417969-3.582031-8-8-8s-8 3.582031-8 8v8c0 4.417969 3.582031 8 8 8zm0 0"/><path d="m240 216.519531c4.417969 0 8-3.582031 8-8v-8c0-4.417969-3.582031-8-8-8s-8 3.582031-8 8v8c0 4.417969 3.582031 8 8 8zm0 0"/><path d="m208 216.519531c4.417969 0 8-3.582031 8-8v-8c0-4.417969-3.582031-8-8-8s-8 3.582031-8 8v8c0 4.417969 3.582031 8 8 8zm0 0"/><path d="m176 216.519531c4.417969 0 8-3.582031 8-8v-8c0-4.417969-3.582031-8-8-8s-8 3.582031-8 8v8c0 4.417969 3.582031 8 8 8zm0 0"/><path d="m144 216.519531c4.417969 0 8-3.582031 8-8v-8c0-4.417969-3.582031-8-8-8s-8 3.582031-8 8v8c0 4.417969 3.582031 8 8 8zm0 0"/><path d="m336 216.519531c4.417969 0 8-3.582031 8-8v-8c0-4.417969-3.582031-8-8-8s-8 3.582031-8 8v8c0 4.417969 3.582031 8 8 8zm0 0"/><path d="m128 112.519531h112c22.089844 0 40-17.910156 40-40 0-22.09375-17.910156-40-40-40h-2.511719c-10.148437-20.109375-30.972656-32.566406-53.488281-32-22.515625-.566406-43.34375 11.890625-53.496094 32h-2.503906c-22.089844 0-40 17.90625-40 40 0 22.089844 17.910156 40 40 40zm0-64h8c3.5.007813 6.597656-2.261719 7.648438-5.601562 6.34375-16.585938 22.613281-27.230469 40.351562-26.398438 17.738281-.832031 34.007812 9.8125 40.351562 26.398438 1.050782 3.339843 4.148438 5.609375 7.648438 5.601562h8c13.253906 0 24 10.742188 24 24 0 13.253907-10.746094 24-24 24h-112c-13.253906 0-24-10.746093-24-24 0-13.257812 10.746094-24 24-24zm0 0"/><path d="m440 368.519531h-2.511719c-10.578125-19.703125-31.128906-32-53.492187-32-22.363282 0-42.914063 12.296875-53.492188 32h-2.503906c-22.089844 0-40 17.90625-40 40 0 22.089844 17.910156 40 40 40h112c22.089844 0 40-17.910156 40-40 0-22.09375-17.910156-40-40-40zm0 64h-112c-13.253906 0-24-10.746093-24-24 0-13.257812 10.746094-24 24-24h8c3.5.007813 6.597656-2.261719 7.648438-5.601562 7.027343-16.015625 22.859374-26.363281 40.351562-26.363281s33.324219 10.347656 40.351562 26.363281c1.050782 3.339843 4.148438 5.609375 7.648438 5.601562h8c13.253906 0 24 10.742188 24 24 0 13.253907-10.746094 24-24 24zm0 0"/><path d="m39.257812 264.519531 120.429688 9.855469-52.6875 42.144531c-1.8125 1.453125-2.90625 3.621094-2.996094 5.941407-.085937 2.324218.839844 4.570312 2.539063 6.152343l16 14.929688c.398437.371093.828125.699219 1.289062.984375 8.828125 5.382812 18.988281 8.191406 29.328125 8.109375 22.167969-1.28125 43.21875-10.140625 59.640625-25.085938l58.726563-44 158.570312 12.96875h.09375c1.121094.070313 2.222656.109375 3.34375.109375 15.027344.050782 29.273438-6.667968 38.792969-18.292968 7.390625-9.046876 9.617187-21.25 5.894531-32.320313l-23.917968-72c-8.34375-25.3125-39.058594-38.960937-63.90625-37.496094l-305.671876 18.214844-34.140624-54.464844c-1.464844-2.332031-4.023438-3.75-6.777344-3.75h-35.808594c-4.417969 0-8 3.582031-8 8v120c.636719 21.535157 17.734375 38.960938 39.257812 40zm163.550782 50.566407c-18.402344 15.671874-47.601563 29.191406-69.976563 16.175781l-8.609375-8 58.699219-46.953125 64.566406 5.289062zm248.757812-98.566407h-51.566406v-32h40.9375l1.261719 3.816407zm-60.238281-64c15.472656-.828125 30.5625 4.992188 41.472656 16h-40.800781c-4.417969 0-8 3.582031-8 8v48c0 4.417969 3.582031 8 8 8h64.886719l6.144531 18.503907c1.988281 6.007812.730469 12.613281-3.328125 17.472656-7.007813 8.273437-17.527344 12.738281-28.351563 12.023437l-390.886718-32c-13.167969-.398437-23.816406-10.847656-24.464844-24v-49.664062zm-351.953125-40 27.152344 43.292969-50.527344 3.011719v-46.304688zm0 0"/></svg>