<svg height="50px" viewBox="0 -88 480.00417 480" width="50px" xmlns="http://www.w3.org/2000/svg"><path d="m272.003906 192.074219h-16c-4.417968 0-8-3.582031-8-8v-48c0-4.417969-3.582031-8-8-8-4.417968 0-8 3.582031-8 8v48c0 13.253906 10.746094 24 24 24h16c4.417969 0 8-3.582031 8-8s-3.582031-8-8-8zm0 0"/><path d="m288.003906 144.074219h-16c-4.417968 0-8 3.582031-8 8s3.582032 8 8 8h16c4.417969 0 8-3.582031 8-8s-3.582031-8-8-8zm0 0"/><path d="m120.003906 144.074219h-16c-4.417968 0-8 3.582031-8 8s3.582032 8 8 8h16c4.417969 0 8-3.582031 8-8s-3.582031-8-8-8zm0 0"/><path d="m104.003906 224.074219c-13.253906 0-24 10.742187-24 24 0 13.253906 10.746094 24 24 24s24-10.746094 24-24c0-13.257813-10.746094-24-24-24zm0 32c-4.417968 0-8-3.582031-8-8s3.582032-8 8-8c4.417969 0 8 3.582031 8 8s-3.582031 8-8 8zm0 0"/><path d="m376.003906 224.074219c-13.253906 0-24 10.742187-24 24 0 13.253906 10.746094 24 24 24s24-10.746094 24-24c0-13.257813-10.746094-24-24-24zm0 32c-4.417968 0-8-3.582031-8-8s3.582032-8 8-8c4.417969 0 8 3.582031 8 8s-3.582031 8-8 8zm0 0"/><path d="m440.003906 96.074219h-74.238281l-24.113281-72.351563c-6.648438-15.203125-22.070313-24.640625-38.632813-23.6484372h-163.199219c-13.800781-.5195308-26.980468 5.7578122-35.28125 16.7968752l-52.816406 79.203125h-27.71875c-6.453125.03125-12.628906 2.644531-17.136718 7.261719-4.511719 4.617187-6.984376 10.851562-6.86328175 17.304687l6.96093775 97.144531c.941406 12.535156 11.363281 22.238282 23.933594 22.289063h17.746093c-3.324219 21.785156 6.441407 43.496093 24.949219 55.464843s42.3125 11.96875 60.820312 0c18.507813-11.96875 28.273438-33.679687 24.949219-55.464843h161.28125c-3.324219 21.785156 6.441407 43.496093 24.949219 55.464843s42.3125 11.96875 60.820312 0c18.507813-11.96875 28.273438-33.679687 24.949219-55.464843h17.921875c12.453125-.066407 22.8125-9.601563 23.902344-22.007813l6.816406-81.992187c-.027344-22.082031-17.917968-39.976563-40-40zm-113.519531-67.289063 22.414063 67.289063h-100.894532v-80h55.015625c9.667969-.871094 18.914063 4.136719 23.464844 12.710937zm-208.664063-3.007812c5.355469-6.550782 13.511719-10.15625 21.960938-9.703125h92.222656v80h-161.054687zm-13.816406 262.296875c-22.089844 0-40-17.910157-40-40 0-22.09375 17.910156-40 40-40s40 17.90625 40 40c-.027344 22.078125-17.917968 39.972656-40 40zm272 0c-22.089844 0-40-17.910157-40-40 0-22.09375 17.910156-40 40-40s40 17.90625 40 40c-.027344 22.078125-17.917968 39.972656-40 40zm73.28125-64h-22.761718c-9.234376-19.539063-28.910157-32-50.519532-32s-41.285156 12.460937-50.519531 32h-170.960937c-9.234376-19.539063-28.910157-32-50.519532-32s-41.285156 12.460937-50.519531 32h-22.585937c-4.203126.007812-7.699219-3.238281-8-7.433594l-1.742188-24.566406h26.847656c4.417969 0 8-3.582031 8-8v-32c0-4.417969-3.582031-8-8-8h-30.28125l-1.71875-24c0-4.417969 3.582032-8 8-8h416c13.011719-.03125 23.664063 10.328125 24 23.335937l-.695312 8.664063h-31.304688c-4.417968 0-8 3.582031-8 8v32c0 4.417969 3.582032 8 8 8h27.304688l-2.0625 24.664062c-.347656 4.140625-3.804688 7.328125-7.960938 7.335938zm-430.402344-64h21.121094v16h-20zm441.761719 16h-20.640625v-16h21.96875zm0 0"/></svg>