<svg height="50" viewBox="0 0 480 480.00787" width="50" xmlns="http://www.w3.org/2000/svg"><path d="m321.199219 317.199219-51.054688-7.792969-22.914062-48.796875c-1.316407-2.808594-4.140625-4.597656-7.238281-4.597656-3.101563 0-5.921876 1.789062-7.242188 4.597656l-22.910156 48.796875-51.054688 7.792969c-2.964844.453125-5.429687 2.523437-6.382812 5.367187s-.234375 5.984375 1.859375 8.128906l37.1875 38.105469-8.800781 53.902344c-.492188 3.019531.78125 6.050781 3.28125 7.816406 2.496093 1.765625 5.78125 1.949219 8.460937.480469l45.601563-25.191406 45.597656 25.191406c1.1875.652344 2.519531.996094 3.875 1 2.34375 0 4.574218-1.03125 6.09375-2.816406 1.519531-1.789063 2.179687-4.15625 1.800781-6.472656l-8.800781-53.902344 37.183594-38.113282c2.097656-2.144531 2.8125-5.285156 1.863281-8.128906-.953125-2.84375-3.417969-4.914062-6.382813-5.367187zm-46.9375 43.320312c-1.773438 1.820313-2.578125 4.371094-2.167969 6.878907l6.792969 41.601562-35.03125-19.359375c-2.40625-1.328125-5.324219-1.328125-7.726563 0l-35.035156 19.359375 6.792969-41.601562c.410156-2.507813-.394531-5.058594-2.167969-6.878907l-29.128906-29.847656 39.890625-6.097656c2.636719-.402344 4.898437-2.09375 6.03125-4.511719l17.480469-37.230469 17.480468 37.230469c1.128906 2.414062 3.386719 4.105469 6.023438 4.511719l39.894531 6.097656zm0 0"/><path d="m22.390625 398.617188c5.054687 46.726562 44.796875 81.960937 91.792969 81.382812h251.617187c46.96875.617188 86.714844-34.570312 91.789063-81.273438l22.113281-193.3125c1.28125-11.429687-2.371094-22.867187-10.039063-31.4375-8-8.910156-19.410156-13.992187-31.382812-13.976562h-22.289062v-120c.871093-21.125-15.472657-38.992188-36.59375-40h-278.816407c-21.117187 1.007812-37.464843 18.875-36.589843 40v120h-22.289063c-11.980469-.023438-23.402344 5.058594-31.40625 13.976562-7.671875 8.570313-11.324219 20.007813-10.042969 31.4375zm419.359375-1.601563c-4.234375 38.585937-37.140625 67.605469-75.949219 66.984375h-251.617187c-38.832032.574219-71.722656-28.488281-75.929688-67.097656l-17.941406-156.902344h439.359375zm-73.757812-237.015625h-256v-104c0-1.871094.207031-8 2.886718-8h250.226563c2.679687 0 2.886719 6.128906 2.886719 8zm-256 16h256v48h-256zm326.289062 0c7.417969-.027344 14.496094 3.109375 19.460938 8.625 4.679687 5.148438 6.898437 12.066406 6.089843 18.976562l-2.335937 20.398438h-45.503906v-48zm-358.289062-136c-.851563-12.285156 8.320312-22.976562 20.589843-24h278.816407c12.273437 1.023438 21.445312 11.714844 20.59375 24v184h-16v-168c0-17.695312-9.761719-24-18.886719-24h-250.226563c-9.128906 0-18.886718 6.304688-18.886718 24v168h-16zm-57.753907 144.625c4.964844-5.515625 12.046875-8.652344 19.464844-8.625h22.289063v48h-45.511719l-2.335938-20.398438c-.804687-6.910156 1.417969-13.828124 6.09375-18.976562zm0 0"/></svg>