<svg height="480pt" viewBox="0 -31 480 479" width="480pt" xmlns="http://www.w3.org/2000/svg"><path d="m120.609375 115.5625c1.238281 2.988281 4.15625 4.9375 7.390625 4.9375h32c4.417969 0 8-3.582031 8-8s-3.582031-8-8-8h-12.6875l18.34375-18.34375c2.285156-2.289062 2.972656-5.730469 1.734375-8.71875s-4.15625-4.9375-7.390625-4.9375h-32c-4.417969 0-8 3.582031-8 8s3.582031 8 8 8h12.6875l-18.34375 18.34375c-2.289062 2.289062-2.972656 5.730469-1.734375 8.71875zm0 0"/><path d="m192.609375 43.5625c1.238281 2.988281 4.15625 4.9375 7.390625 4.9375h32c4.417969 0 8-3.582031 8-8s-3.582031-8-8-8h-12.6875l18.34375-18.34375c2.285156-2.289062 2.972656-5.730469 1.734375-8.71875s-4.15625-4.9375-7.390625-4.9375h-32c-4.417969 0-8 3.582031-8 8s3.582031 8 8 8h12.6875l-18.34375 18.34375c-2.289062 2.289062-2.972656 5.730469-1.734375 8.71875zm0 0"/><path d="m472 256.5h-24v-72c0-4.417969-3.582031-8-8-8h-272c-4.417969 0-8 3.582031-8 8v72h-24.207031c5.292969-6.882812 8.175781-15.316406 8.207031-24 0-22.089844-17.910156-40-40-40s-40 17.910156-40 40c.03125 8.683594 2.914062 17.117188 8.207031 24h-24.207031v-120c0-13.253906-10.746094-24-24-24s-24 10.746094-24 24v240c0 4.417969 3.582031 8 8 8h8v24c0 4.417969 3.582031 8 8 8h32c4.417969 0 8-3.582031 8-8v-24h352v24c0 4.417969 3.582031 8 8 8h32c4.417969 0 8-3.582031 8-8v-24h8c4.417969 0 8-3.582031 8-8v-112c0-4.417969-3.582031-8-8-8zm-296-64h256v120c0 4.417969-3.582031 8-8 8h-240c-4.417969 0-8-3.582031-8-8zm-96 40c0-13.253906 10.746094-24 24-24s24 10.746094 24 24-10.746094 24-24 24-24-10.746094-24-24zm-64-96c0-4.417969 3.582031-8 8-8s8 3.582031 8 8v120h-16zm32 264h-16v-16h16zm400 0h-16v-16h16zm16-32h-448v-96h144v40c0 13.253906 10.746094 24 24 24h240c13.253906 0 24-10.746094 24-24v-40h16zm0 0"/></svg>