<?xml version="1.0" encoding="utf-8"?>
<!-- Generator: Adobe Illustrator 16.0.0, SVG Export Plug-In . SVG Version: 6.00 Build 0)  -->
<!DOCTYPE svg PUBLIC "-//W3C//DTD SVG 1.1//EN" "http://www.w3.org/Graphics/SVG/1.1/DTD/svg11.dtd">
<svg version="1.1" id="Layer_1" xmlns="http://www.w3.org/2000/svg" xmlns:xlink="http://www.w3.org/1999/xlink" x="0px" y="0px"
	   viewBox="0 0 270 85" enable-background="new 0 0 270 85" xml:space="preserve">
<g>
	<g>
		<defs>
			<rect id="SVGID_1_" x="-0.12" y="-0.16" width="270.24" height="85.32"/>
		</defs>
		<clipPath id="SVGID_2_">
			<use xlink:href="#SVGID_1_"  overflow="visible"/>
		</clipPath>
		<path clip-path="url(#SVGID_2_)" fill="#10427A" d="M84.36,52.4h3.72v4.32c1.8-3,3.72-4.682,7.44-4.682v3.121
			c-1.921,0-3.48,0.719-4.681,1.799c-1.439,1.441-2.76,3.842-2.76,6V74.24h-3.72V52.4z"/>
		<path clip-path="url(#SVGID_2_)" fill="#10427A" d="M98.64,56.6c1.44-2.52,4.681-4.561,9-4.561c3.841,0,8.28,1.682,8.28,6.48
			v11.041c0,2.279,0.24,3.479,0.601,4.68H112.8l-0.359-3.121c-1.561,1.682-4.2,3.48-7.561,3.48c-3.479,0-6.96-2.039-6.96-6
			c0-4.799,4.32-7.08,14.4-8.879v-1.08c0-3-1.92-4.08-4.681-4.08c-3.479,0-5.159,1.92-5.76,3.479L98.64,56.6z M112.32,62.48
			c-7.2,1.199-10.8,3.119-10.8,6.24c0,1.92,2.039,3.238,3.84,3.238c2.279,0,5.16-1.559,6.96-3.6V62.48z"/>
		<polygon clip-path="url(#SVGID_2_)" fill="#10427A" points="130.56,74.24 125.88,74.24 118.8,52.4 122.521,52.4 128.28,70.4 
			128.4,70.4 134.16,52.4 137.4,52.4 		"/>
		<polygon clip-path="url(#SVGID_2_)" fill="#10427A" points="167.641,43.4 167.641,74.24 163.92,74.24 163.92,44.959 		"/>
		<path clip-path="url(#SVGID_2_)" fill="#10427A" d="M181.681,74.6c-6.24,0-9.721-5.039-9.721-11.279s3.48-11.281,9.721-11.281
			c6.239,0,9.84,5.041,9.84,11.281S187.92,74.6,181.681,74.6z M181.681,54.561c-3.721,0-6.12,3.119-6.12,8.76
			c0,5.639,2.399,8.639,6.12,8.639c3.84,0,6.239-3,6.239-8.639C187.92,57.68,185.521,54.561,181.681,54.561z"/>
		<path clip-path="url(#SVGID_2_)" fill="#10427A" d="M209.641,58.881c-0.841-2.641-2.641-4.32-5.4-4.32
			c-3.84,0-6.12,3.24-6.12,8.76s2.28,8.639,6.12,8.639c2.88,0,4.56-0.84,6.24-3.959l3.12,1.08c-2.28,3.721-4.801,5.52-9.36,5.52
			c-5.64,0-9.72-4.199-9.72-11.279s4.08-11.281,9.72-11.281c4.68,0,7.44,2.521,8.88,5.881L209.641,58.881z"/>
	</g>
	<rect x="217.32" y="52.4" fill="#10427A" width="3.72" height="21.84"/>
	<g>
		<defs>
			<rect id="SVGID_3_" x="-0.12" y="-0.16" width="270.24" height="85.32"/>
		</defs>
		<clipPath id="SVGID_4_">
			<use xlink:href="#SVGID_3_"  overflow="visible"/>
		</clipPath>
		<path clip-path="url(#SVGID_4_)" fill="#10427A" d="M76.2,71.959c-1.8,0-2.521-0.479-2.521-1.439v-15.48h4.561l0.6-2.639h-5.16
			v-7.68l-3.72,1.559V52.4H66.6v2.639h3.36V71c0.36,2.76,1.92,3.6,5.4,3.6c1.439,0,2.279-0.119,3.359-0.24l0.721-2.639
			C78.12,71.959,77.28,71.959,76.2,71.959z"/>
		<path clip-path="url(#SVGID_4_)" fill="#10427A" d="M260.28,52.4l-8.04,23.76c-1.8,4.799-5.28,6.119-8.16,6.119
			c-1.08,0-2.399-0.119-3-0.24l0.72-2.52c0.48,0,1.08,0.121,1.681,0.121c1.92,0,4.92-0.48,6-5.16l-7.92-22.08h3.359l6.12,16.68h0.12
			l5.28-16.68H260.28z"/>
		<path clip-path="url(#SVGID_4_)" fill="#10427A" d="M235.561,71.959c-1.8,0-2.521-0.479-2.521-1.439v-15.48h4.561l0.6-2.639h-5.16
			v-7.68l-3.72,1.559V52.4h-3.24v2.639h3.24V71c0.36,2.76,1.92,3.6,5.399,3.6c1.44,0,2.4-0.119,3.36-0.24l0.72-2.639
			C237.48,71.959,236.641,71.959,235.561,71.959z"/>
		<path clip-path="url(#SVGID_4_)" fill="#10427A" d="M156.48,68.48c-1.32,2.16-3.48,3.479-6.24,3.479
			c-3.72,0-6.72-3.238-6.72-8.039h15.359v-2.041c0-6.959-4.439-9.84-9.239-9.84c-5.521,0-9.721,4.201-9.721,11.281
			c0,7.92,5.28,11.279,10.32,11.279c4.44,0,5.88-0.359,8.521-3.959L156.48,68.48z M149.761,54.561c3.479,0,5.399,2.76,5.399,6.719
			h-11.52C143.88,57.32,145.92,54.561,149.761,54.561z"/>
	</g>
	<rect x="217.32" y="45.08" fill="#10427A" width="3.72" height="3.721"/>
	<g>
		<defs>
			<rect id="SVGID_5_" x="-0.12" y="-0.16" width="270.24" height="85.32"/>
		</defs>
		<clipPath id="SVGID_6_">
			<use xlink:href="#SVGID_5_"  overflow="visible"/>
		</clipPath>
		<path clip-path="url(#SVGID_6_)" fill="#F3632B" d="M7.32,42.08C7.92,41.84,8.4,41.84,9,41.6c-0.84-0.84-1.8-1.68-2.52-2.76
			c-0.24-0.36-0.12-0.48,0.119-0.48c0.12,0,0-0.359,0.12-0.6c0.36-0.121,0.36-0.48,0.48-0.721c0.12,0,0-0.359,0.12-0.359
			c0.12-0.12,0.239-0.12,0.479-0.12C8.4,37.4,9.24,38,10.08,38.48c0.96,0.72,1.92,1.2,2.76,2.04c0.12,0,0.36,0.119,0.36,0
			c0.12-0.96,0.359-1.68,0.84-2.4c0.12-0.24,0.12-0.6,0.36-0.84c0.239-0.48,0.84-0.84,1.319-1.2c0.721-0.36,1.681,0,2.16-0.6
			c0.24-0.12,0.48,0,0.72,0c0.48,0.239,1.2,0.12,1.561,0.479c-0.601,1.561-0.601,3.12-1.2,4.68c0,0.361-0.24,0.841,0,0.961
			c0.72,0.359,2.76,0,2.88-0.12c1.08,0,2.04,0,3,0.239c0.84,0.24,1.32,0.601,2.04,1.08c1.08,0.841,1.08,2.4,0.96,3.72
			c0,0-0.479,0.48-0.72,0.48C27,47,27,46.641,26.88,46.641c-0.359,0.238-1.2,1.08-1.439,1.08c-0.12,0-0.601-0.48-0.841-0.602
			c-0.96-0.6-1.92-0.479-2.88-0.359c-1.199,0.119-2.279,0-3.479,0.48c0.479,0.719,1.2,1.08,1.8,1.68c1.08,1.08,2.04,1.801,3.12,2.76
			c0.72,0.721,1.439,1.199,1.92,2.041c-0.36,0.238-0.12,0.359-0.12,0.479c-0.24,0.121-0.24-0.24-0.36-0.24
			c-0.239,0-0.359,0.24-0.239,0.48c0,0-0.24,0.48-0.36,0.6c-0.12,0-0.479,0.24-0.72,0.24c0,0-0.601-0.24-0.48-0.119
			c0.12,0.24,0.24,0.6,0.24,0.719c-0.48-0.119-0.6-0.119-0.96-0.479c-1.44-1.201-2.64-2.4-4.2-3.721
			c-0.479-0.48-0.84-1.199-1.56-1.561C15.36,52.4,14.64,54.08,13.56,56.48c-0.239,0.359-0.359,1.439-0.6,1.559
			c-0.12,0.121-0.72-0.84-1.08-1.439c0-1.32,0.12-1.92,0.24-3.359V53c0.12-1.92,0.72-3.721,0.6-5.641
			c0.12-0.119-0.12-0.24-0.479-0.24c-2.521-0.24-5.04-0.479-7.681-0.84c-0.6-0.119-1.199-0.119-1.8-0.359
			c-0.12-0.119-0.479-0.24-0.479-0.24c-0.12-0.119-0.12-0.119-0.24-0.119c1.08-1.08,2.04-2.041,3.36-2.761
			C5.76,42.68,6.84,42.32,7.32,42.08z"/>
		<path clip-path="url(#SVGID_6_)" fill="#10427A" d="M31.44,55.641c-0.12-0.121,0-0.24,0-0.361c0.119-0.24,0.479-0.119,0.72-0.119
			c0.6-0.24,1.439,0,2.16-0.24c0.12-0.119,0.239-0.24,0.359-0.24c0.48-0.24,0.96-0.359,1.561-0.48
			c0.12-0.119,0.479-0.359,0.359-0.479C36,53,35.28,52.4,35.04,51.68c-0.24-0.48-0.6-0.84-0.6-1.199c0-0.361,0.479-0.48,0.84-0.361
			c1.56,0.84,2.52,2.16,3.72,3.48c0.12,0.24,0.36-0.359,0.48-0.6c0.479-1.08,0.84-2.279,1.439-3.359
			c0.12-0.361,0.36-0.721,0.72-0.84c0.601-0.121,0.841-0.48,1.32-0.721c0.36-0.24,0.72,0,0.96-0.24c0.24-0.119,0.48,0.24,0.84,0.119
			c0.36-0.238,0.721-0.119,1.2,0c0.24,0.121,0.36,0.48,0.24,0.721c-0.48,0.961-0.601,2.041-1.2,3c-0.6,0.721-0.96,1.439-1.56,2.16
			c0,0.119,0,0.24,0.119,0.359c0.36,0,0.721,0,1.08,0.121c0.96,0.359,2.04,0.24,3.12,0.359c0.601,0.24,0.601,0.961,1.08,1.32
			c0.24,0.24-0.24,0.48-0.479,0.6c-0.84,0.121-1.561-0.119-2.28,0.121c-1.32,0.238-2.64,0-3.84,0.479
			c0.359,0.361,0.84,0.721,1.2,1.201c0.359,0.479,0.6,0.959,0.96,1.439c0.359,0.48,0.6,1.08,0.72,1.68
			c0.12,0.24,0.12,0.6,0.12,0.961c-0.12-0.121-0.12-0.361-0.36-0.48c-0.12,0-0.24,0.359-0.479,0.24
			c-0.12-0.121-0.24-0.24-0.36-0.361c-0.24-0.238-0.48-0.6-0.6-0.959c-0.48-1.08-1.44-1.801-2.4-2.4c-0.84,1.68-1.44,3.48-2.64,5.16
			c0,0.121-0.24,0.121-0.48,0.121c0-0.121-0.12,0.119-0.24,0.119c-0.12-0.119-0.239-0.119-0.239-0.24
			c-0.36-0.24-0.841-0.6-0.96-0.959c-0.24-0.361-0.36-0.721-0.36-1.201l-0.24-0.24c0.24-0.359,0.24-0.6,0.36-0.84
			c0.24-0.24,0.479-0.48,0.479-0.84c0.36-0.84,1.08-1.439,1.2-2.279c-1.68-0.361-3.479-0.121-5.04-0.84
			c-0.359-0.121-0.72-0.24-1.08-0.48C31.68,55.879,31.68,55.641,31.44,55.641z"/>
		<path clip-path="url(#SVGID_6_)" fill="#63A1D9" d="M33.48,29.719C33.96,28.52,34.8,27.68,34.92,26.36
			c-2.76-1.561-6.12-0.721-8.04-4.2c-0.479-0.72,0-4.2,0.24-4.68c0.6-1.2,1.8-1.2,3-0.36c0.12,0,0.96,0.24,1.2,0.24
			c1.08-0.12,2.279,0.24,3.479,0.6c1.561,0.12,2.88,0.721,4.32,0.601c0.12-0.12,0.24-0.48,0.24-0.841
			C39,15.56,38.521,13.76,37.92,11.6c-0.12-0.48-0.12-1.08-0.24-1.68C37.56,8.719,36.72,6.799,37.44,6.2
			C37.56,6.08,37.68,6.44,37.8,6.44c0.24-0.24,0.48-0.6,0.601-0.48c2.76,1.68,5.04,4.44,7.319,7.08c0.84,0.721,0.96-1.32,1.561-1.92
			c0.12-0.359,0-1.08,0.12-1.439C48,8.6,48.12,7.28,48.6,6.32C49.56,5,50.04,3.2,51.48,2.6c0.84-0.24,1.92,0.119,2.76,0.96
			c0.24,0.12,0.6,0,0.84,0.239c0.96,0.84,1.8,2.041,2.88,3c0.36,0.36,0.48,1.08,0.36,1.44c-0.24,1.44-1.561,1.56-2.4,2.521
			c-1.439,2.279-3,4.68-4.439,6.959c-0.12,0.36-0.601,1.08-0.24,1.44c2.04,1.92,3.84,4.08,6.24,5.64
			c1.439,0.961,3.119,0.84,4.319,2.041c0.96,1.08,1.681,2.279,2.16,3.72c-5.28,3.239-11.28-2.16-16.92-2.04
			c-0.48,0.119-0.36,0.6-0.36,0.84c0.24,2.4,0.721,4.68,0.96,6.84c0.12,1.561,0.96,3.12,1.2,4.68c0.12,0.601,0.601,2.16-0.12,2.041
			c-0.96,0-2.16-0.24-2.64-1.561c-0.84-1.8-1.68-3.6-2.28-5.52c0-0.601-0.24-1.08-0.12-1.561c0.12-0.96-0.479-1.8-0.72-2.52
			c-0.12-0.24-0.6,0.24-0.72,0.359c-0.84,0.96-1.561,1.92-2.28,3c-1.32,1.801-2.76,2.881-4.56,3.6c-1.2,0.48-3.24,0.841-4.08-1.08
			C31.8,37.52,32.04,36.68,31.8,36.32C29.76,33.56,32.64,31.76,33.48,29.719z"/>
		<path clip-path="url(#SVGID_6_)" fill="#10427A" d="M262.681,53.84c0.119-0.359,0.359-0.6,0.6-0.84s0.48-0.359,0.84-0.48
			c0.36-0.119,0.72-0.24,1.08-0.24s0.6,0.121,0.96,0.24c0.36,0.121,0.601,0.24,0.84,0.48c0.24,0.24,0.48,0.48,0.601,0.84
			s0.239,0.721,0.239,1.08s-0.119,0.721-0.239,0.959c-0.12,0.361-0.36,0.602-0.601,0.842c-0.239,0.238-0.479,0.479-0.84,0.6
			c-0.36,0.119-0.6,0.24-0.96,0.24s-0.72-0.121-1.08-0.24c-0.359-0.121-0.6-0.361-0.84-0.6c-0.24-0.24-0.48-0.48-0.6-0.842
			c-0.12-0.238-0.24-0.6-0.24-0.959S262.561,54.199,262.681,53.84z M263.16,55.76c0.12,0.24,0.24,0.48,0.48,0.721
			c0.12,0.24,0.359,0.359,0.6,0.479c0.36,0.121,0.6,0.24,0.96,0.24c0.24,0,0.48-0.119,0.84-0.24c0.24-0.119,0.48-0.238,0.601-0.479
			C266.88,56.24,267,56,267.12,55.76s0.24-0.6,0.24-0.84c0-0.359-0.12-0.6-0.24-0.961c-0.12-0.238-0.24-0.479-0.479-0.6
			c-0.12-0.24-0.36-0.359-0.601-0.48c-0.359-0.119-0.6-0.238-0.84-0.238c-0.36,0-0.6,0.119-0.96,0.238
			c-0.24,0.121-0.479,0.24-0.6,0.48c-0.24,0.121-0.36,0.361-0.48,0.6c-0.12,0.361-0.24,0.602-0.24,0.961
			C262.92,55.16,263.04,55.52,263.16,55.76z M265.32,53.359c0.36,0,0.6,0.121,0.84,0.24c0.12,0.121,0.24,0.359,0.24,0.6
			c0,0.361-0.12,0.48-0.24,0.602c-0.12,0.119-0.36,0.238-0.6,0.238l0.84,1.441h-0.48l-0.84-1.32h-0.479v1.32h-0.48v-3.121H265.32z
			 M265.08,54.68c0.12,0,0.24,0,0.36,0c0,0,0.12,0,0.24,0c0-0.119,0.119-0.119,0.119-0.119c0.12-0.121,0.12-0.24,0.12-0.361
			c0-0.119,0-0.119-0.12-0.24c0,0,0-0.119-0.119-0.119c0,0-0.12,0-0.24-0.119c0,0-0.12,0-0.24,0h-0.6v0.959H265.08z"/>
	</g>
</g>
</svg>
