<?xml version="1.0" encoding="utf-8"?>
<!-- Generator: Adobe Illustrator 23.0.1, SVG Export Plug-In . SVG Version: 6.00 Build 0)  -->
<svg version="1.1" id="Camada_1" xmlns="http://www.w3.org/2000/svg" xmlns:xlink="http://www.w3.org/1999/xlink" x="0px" y="0px"
	 viewBox="0 0 50 50" style="enable-background:new 0 0 50 50;" xml:space="preserve">
<style type="text/css">
	.st0{fill:url(#SVGID_1_);}
</style>
<linearGradient id="SVGID_1_" gradientUnits="userSpaceOnUse" x1="25" y1="0.7328" x2="25" y2="49.5836">
	<stop  offset="0" style="stop-color:#23733C"/>
	<stop  offset="1" style="stop-color:#95BA5E"/>
</linearGradient>
<path class="st0" d="M25,0C11.2,0,0,11.2,0,25s11.2,25,25,25s25-11.2,25-25S38.8,0,25,0z M36.4,19.5c0,0.2,0,0.5,0,0.7
	c0,7.6-5.8,16.3-16.3,16.3h0h0c-3.2,0-6.3-0.9-8.8-2.6c0.4,0.1,0.9,0.1,1.4,0.1c2.7,0,5.2-0.9,7.1-2.5c-2.5,0-4.6-1.7-5.4-4
	c0.3,0.1,0.7,0.1,1.1,0.1c0.5,0,1-0.1,1.5-0.2c-2.6-0.5-4.6-2.8-4.6-5.6c0,0,0,0,0-0.1c0.8,0.4,1.7,0.7,2.6,0.7
	c-1.5-1-2.6-2.8-2.6-4.8c0-1.1,0.3-2,0.8-2.9c2.8,3.5,7.1,5.8,11.8,6c-0.1-0.4-0.1-0.9-0.1-1.3c0-3.2,2.6-5.7,5.7-5.7
	c1.7,0,3.1,0.7,4.2,1.8c1.3-0.3,2.5-0.7,3.6-1.4c-0.4,1.3-1.3,2.5-2.5,3.2c1.2-0.1,2.3-0.4,3.3-0.9C38.5,17.7,37.5,18.7,36.4,19.5z"
	/>
</svg>
