<svg height="480pt" viewBox="-48 0 480 480.00162" width="480pt" xmlns="http://www.w3.org/2000/svg"><path d="m96 240h16v16h-16zm0 0"/><path d="m144 224h16v16h-16zm0 0"/><path d="m40 224h16v16h-16zm0 0"/><path d="m288 48c4.417969 0 8-3.582031 8-8v-32c0-4.417969-3.582031-8-8-8h-80c-22.078125.0273438-39.972656 17.917969-40 40v88h-104c-2.308594 0-4.503906.996094-6.023438 2.734375l-56 64c-.574218.8125-1.058593 1.6875-1.449218 2.601563-.246094.871093-.421875 1.761718-.527344 2.664062l.402344 125.6875c-2.921875 38.878906 10.671875 77.191406 37.445312 105.535156 29.449219 31.300782 70.578125 48.96875 113.554688 48.777344h81.199218c42.972657.195312 84.097657-17.460938 113.550782-48.753906 26.664062-28.160156 40.261718-66.230469 37.472656-104.910156l.375-126.335938c-.101562-.910156-.277344-1.808594-.527344-2.6875-.386718-.917969-.875-1.789062-1.449218-2.601562l-56-64c-1.523438-1.730469-3.71875-2.71875-6.023438-2.710938h-104v-80zm-128 416c0-17.671875 14.328125-32 32-32 17.675781 0 32 14.328125 32 32zm174.402344-43.632812c-24.667969 26.117187-58.515625 41.628906-94.402344 43.257812 0-26.511719-21.488281-48-48-48-26.507812 0-48 21.488281-48 48-35.886719-1.628906-69.734375-17.136719-94.398438-43.257812-23.839843-25.273438-35.902343-59.441407-33.207031-94.078126l-.394531-118.289062h188.367188l53.601562 61.265625c1.519531 1.738281 3.714844 2.734375 6.023438 2.734375 2.308593 0 4.503906-.996094 6.023437-2.734375l53.617187-61.265625h44.367188l-.328125 118.910156c2.554687 34.449219-9.523437 68.375-33.269531 93.457032zm-108.800782-212.367188h76.800782l-38.402344 43.847656zm132.800782-16h-332.800782l42-48h248.765626zm-174.402344-64v-88c0-13.253906 10.746094-24 24-24h72v16h-64c-8.835938 0-16 7.164062-16 16v80zm0 0"/></svg>