<?xml version="1.0" encoding="utf-8"?>
<!-- Generator: Adobe Illustrator 23.0.1, SVG Export Plug-In . SVG Version: 6.00 Build 0)  -->
<svg version="1.1" id="Camada_1" xmlns="http://www.w3.org/2000/svg" xmlns:xlink="http://www.w3.org/1999/xlink" x="0px" y="0px"
	 viewBox="0 0 68.2 18.6" style="enable-background:new 0 0 68.2 18.6;" xml:space="preserve">
<style type="text/css">
	.st0{fill:#8FBF41;}
	.st1{font-family:'Santhin';}
	.st2{font-size:23.6447px;}
	.st3{enable-background:new    ;}
	.st4{fill:#FB9954;}
</style>
<g id="Component_2_1" transform="translate(1)">
	<text transform="matrix(1 0 0 1 1.9786 16.2365)" class="st0 st1 st2">travelo</text>
	<g class="st3">
		<path class="st4" d="M50.3,15.5c0,0.3-0.1,0.5-0.3,0.7c-0.2,0.2-0.4,0.2-0.6,0.2s-0.4-0.1-0.6-0.2c-0.2-0.2-0.3-0.4-0.3-0.7
			c0-0.3,0.1-0.5,0.3-0.6s0.4-0.2,0.6-0.2s0.4,0.1,0.6,0.2C50.2,15,50.3,15.2,50.3,15.5z"/>
		<path class="st4" d="M50.7,13.7c0-0.4,0.1-0.7,0.2-1s0.3-0.6,0.5-0.8c0.2-0.2,0.5-0.4,0.8-0.6c0.3-0.1,0.7-0.2,1.1-0.2
			c0.3,0,0.5,0,0.7,0.1s0.4,0.1,0.6,0.2l-0.3,1.1c-0.1,0-0.3-0.1-0.4-0.1c-0.2,0-0.3-0.1-0.5-0.1c-0.4,0-0.7,0.1-0.9,0.4
			c-0.2,0.3-0.3,0.6-0.3,1c0,0.5,0.1,0.8,0.3,1c0.2,0.3,0.5,0.4,1,0.4c0.2,0,0.3,0,0.5,0c0.2,0,0.4-0.1,0.5-0.1l0.2,1.2
			c-0.2,0.1-0.4,0.1-0.6,0.2s-0.5,0.1-0.8,0.1c-0.5,0-0.8-0.1-1.2-0.2c-0.3-0.1-0.6-0.3-0.8-0.6c-0.2-0.2-0.4-0.5-0.5-0.8
			S50.7,14.1,50.7,13.7z"/>
		<path class="st4" d="M57.2,9.8c0,0.3-0.1,0.5-0.3,0.6c-0.2,0.1-0.4,0.2-0.6,0.2s-0.4-0.1-0.6-0.2c-0.2-0.1-0.3-0.4-0.3-0.6
			s0.1-0.5,0.3-0.6C56,9.1,56.2,9,56.4,9s0.4,0.1,0.6,0.2C57.2,9.4,57.2,9.6,57.2,9.8z M57.1,16.2h-1.4v-5h1.4V16.2z"/>
		<path class="st4" d="M58.4,10l1.4-0.2v1.5h1.7v1.2h-1.7v1.8c0,0.3,0,0.5,0.2,0.7c0.1,0.2,0.3,0.3,0.6,0.3c0.2,0,0.3,0,0.5,0
			s0.3-0.1,0.4-0.1l0.2,1.1c-0.2,0.1-0.4,0.1-0.6,0.2s-0.5,0.1-0.8,0.1c-0.4,0-0.7,0-1-0.2c-0.3-0.1-0.5-0.3-0.6-0.4
			c-0.2-0.2-0.3-0.4-0.3-0.7c-0.1-0.3-0.1-0.6-0.1-0.9L58.4,10L58.4,10z"/>
		<path class="st4" d="M67.2,11.3c-0.3,1-0.6,1.9-0.9,2.7s-0.7,1.6-1,2.4c-0.1,0.3-0.3,0.5-0.4,0.7c-0.1,0.2-0.3,0.4-0.4,0.5
			s-0.3,0.2-0.5,0.3C63.7,18,63.4,18,63.2,18c-0.2,0-0.4,0-0.6-0.1c-0.2,0-0.3-0.1-0.5-0.1l0.3-1.1c0.1,0,0.3,0.1,0.4,0.1
			c0.1,0,0.2,0,0.4,0c0.2,0,0.5-0.1,0.6-0.2c0.1-0.1,0.3-0.3,0.3-0.6c-0.3-0.6-0.6-1.3-1-2.1s-0.6-1.7-0.9-2.6h1.5
			c0.1,0.3,0.1,0.5,0.2,0.8c0.1,0.3,0.2,0.6,0.3,0.9s0.2,0.6,0.3,0.9s0.2,0.5,0.3,0.8c0.1-0.2,0.2-0.5,0.3-0.8
			c0.1-0.3,0.2-0.6,0.3-0.9c0.1-0.3,0.2-0.6,0.3-0.9s0.2-0.5,0.2-0.8C65.7,11.3,67.2,11.3,67.2,11.3z"/>
	</g>
</g>
</svg>
